<mxfile host="app.diagrams.net" modified="2020-09-11T18:07:14.949Z" agent="5.0 (Windows NT 10.0; Win64; x64) AppleWebKit/537.36 (KHTML, like Gecko) Chrome/85.0.4183.102 Safari/537.36" etag="NfiiexE0BrjkkqyNV8Jz" version="13.6.9" type="github">
  <diagram id="4bcfKKw855ShYiTo_InO" name="Page-1">
    <mxGraphModel dx="1038" dy="548" grid="1" gridSize="10" guides="1" tooltips="1" connect="1" arrows="1" fold="1" page="1" pageScale="1" pageWidth="827" pageHeight="1169" math="0" shadow="0">
      <root>
        <mxCell id="0" />
        <mxCell id="1" parent="0" />
        <mxCell id="uttxLjANuswitY48SyUV-10" value="Game sales dim" style="swimlane;fontStyle=1;childLayout=stackLayout;horizontal=1;startSize=26;horizontalStack=0;resizeParent=1;resizeParentMax=0;resizeLast=0;collapsible=1;marginBottom=0;align=center;fontSize=14;gradientColor=#ffa500;fillColor=#ffcd28;strokeColor=#d79b00;" vertex="1" parent="1">
          <mxGeometry x="80" y="80" width="160" height="150" as="geometry" />
        </mxCell>
        <mxCell id="uttxLjANuswitY48SyUV-11" value="Game-id primary key&#xa;Name&#xa;MaxNA_sales&#xa;MaxEU_sales&#xa;MaxJP_sales&#xa;Maxother_sales&#xa;MaxGlobal_sales" style="text;strokeColor=#d6b656;fillColor=#fff2cc;spacingLeft=4;spacingRight=4;overflow=hidden;rotatable=0;points=[[0,0.5],[1,0.5]];portConstraint=eastwest;fontSize=13;gradientColor=#ffd966;" vertex="1" parent="uttxLjANuswitY48SyUV-10">
          <mxGeometry y="26" width="160" height="124" as="geometry" />
        </mxCell>
        <mxCell id="uttxLjANuswitY48SyUV-18" value="Publisher sales dim" style="swimlane;fontStyle=1;childLayout=stackLayout;horizontal=1;startSize=26;horizontalStack=0;resizeParent=1;resizeParentMax=0;resizeLast=0;collapsible=1;marginBottom=0;align=center;fontSize=14;fillColor=#e51400;strokeColor=#B20000;fontColor=#ffffff;" vertex="1" parent="1">
          <mxGeometry x="80" y="282" width="160" height="160" as="geometry" />
        </mxCell>
        <mxCell id="uttxLjANuswitY48SyUV-19" value="Publisher-id primary key&#xa;Publisher Name&#xa;MaxNA_sales&#xa;MaxEU_sales&#xa;MaxJP_sales&#xa;Maxother_sales&#xa;MaxGlobal_sales" style="text;strokeColor=#b85450;fillColor=#f8cecc;spacingLeft=4;spacingRight=4;overflow=hidden;rotatable=0;points=[[0,0.5],[1,0.5]];portConstraint=eastwest;fontSize=13;gradientColor=#ea6b66;" vertex="1" parent="uttxLjANuswitY48SyUV-18">
          <mxGeometry y="26" width="160" height="134" as="geometry" />
        </mxCell>
        <mxCell id="uttxLjANuswitY48SyUV-22" value=" Rank sales " style="swimlane;fontStyle=0;childLayout=stackLayout;horizontal=1;startSize=26;horizontalStack=0;resizeParent=1;resizeParentMax=0;resizeLast=0;collapsible=1;marginBottom=0;align=center;fontSize=14;fillColor=#d80073;strokeColor=#A50040;fontColor=#ffffff;" vertex="1" parent="1">
          <mxGeometry x="300" y="160" width="160" height="250" as="geometry" />
        </mxCell>
        <mxCell id="uttxLjANuswitY48SyUV-34" value="" style="endArrow=classic;html=1;fontSize=13;entryX=1;entryY=0.25;entryDx=0;entryDy=0;" edge="1" parent="uttxLjANuswitY48SyUV-22" target="uttxLjANuswitY48SyUV-22">
          <mxGeometry width="50" height="50" relative="1" as="geometry">
            <mxPoint x="220" y="20" as="sourcePoint" />
            <mxPoint x="50" as="targetPoint" />
            <Array as="points">
              <mxPoint x="220" y="20" />
            </Array>
          </mxGeometry>
        </mxCell>
        <mxCell id="uttxLjANuswitY48SyUV-23" value="Rank- primary key&#xa;Game id- foreign key&#xa;Game name&#xa;Genre id- foreign key&#xa;Genre name&#xa;Publisher id- foreign&#xa;Publisher name&#xa;Platform id- foreign key&#xa;Platform name&#xa;Year&#xa;NA_sales&#xa;EU_sales&#xa;JP_sales&#xa;Other_sales&#xa;Global_sales" style="text;strokeColor=#996185;fillColor=#e6d0de;spacingLeft=4;spacingRight=4;overflow=hidden;rotatable=0;points=[[0,0.5],[1,0.5]];portConstraint=eastwest;fontSize=12;gradientColor=#d5739d;" vertex="1" parent="uttxLjANuswitY48SyUV-22">
          <mxGeometry y="26" width="160" height="224" as="geometry" />
        </mxCell>
        <mxCell id="uttxLjANuswitY48SyUV-26" value="Genre Sales dim" style="swimlane;fontStyle=1;childLayout=stackLayout;horizontal=1;startSize=26;horizontalStack=0;resizeParent=1;resizeParentMax=0;resizeLast=0;collapsible=1;marginBottom=0;align=center;fontSize=14;fillColor=#6a00ff;strokeColor=#3700CC;fontColor=#ffffff;" vertex="1" parent="1">
          <mxGeometry x="520" y="280" width="160" height="160" as="geometry" />
        </mxCell>
        <mxCell id="uttxLjANuswitY48SyUV-27" value="Genre-id primary key&#xa;Genre&#xa;MaxNA_sale&#xa;MaxEU_sales&#xa;MaxJP_sales&#xa;Maxother_sales&#xa;MaxGlobal_sales" style="text;strokeColor=#6c8ebf;fillColor=#dae8fc;spacingLeft=4;spacingRight=4;overflow=hidden;rotatable=0;points=[[0,0.5],[1,0.5]];portConstraint=eastwest;fontSize=13;gradientColor=#7ea6e0;" vertex="1" parent="uttxLjANuswitY48SyUV-26">
          <mxGeometry y="26" width="160" height="134" as="geometry" />
        </mxCell>
        <mxCell id="uttxLjANuswitY48SyUV-14" value="Platform sales dim" style="swimlane;fontStyle=1;childLayout=stackLayout;horizontal=1;startSize=26;horizontalStack=0;resizeParent=1;resizeParentMax=0;resizeLast=0;collapsible=1;marginBottom=0;align=center;fontSize=14;fillColor=#6d8764;strokeColor=#3A5431;fontColor=#ffffff;" vertex="1" parent="1">
          <mxGeometry x="520" y="80" width="160" height="160" as="geometry" />
        </mxCell>
        <mxCell id="uttxLjANuswitY48SyUV-15" value="Platform-id primary key&#xa;Platform Name&#xa;MaxNA_sales&#xa;MaxEU_sales&#xa;MaxJP_sales&#xa;Maxother_sales&#xa;MaxGlobal_sales" style="text;strokeColor=#82b366;fillColor=#d5e8d4;spacingLeft=4;spacingRight=4;overflow=hidden;rotatable=0;points=[[0,0.5],[1,0.5]];portConstraint=eastwest;fontSize=13;gradientColor=#97d077;" vertex="1" parent="uttxLjANuswitY48SyUV-14">
          <mxGeometry y="26" width="160" height="134" as="geometry" />
        </mxCell>
        <mxCell id="uttxLjANuswitY48SyUV-30" value="FACT TABLE" style="text;html=1;strokeColor=#56517e;fillColor=#d0cee2;align=center;verticalAlign=middle;whiteSpace=wrap;rounded=0;fontSize=13;" vertex="1" parent="1">
          <mxGeometry x="300" y="130" width="160" height="30" as="geometry" />
        </mxCell>
        <mxCell id="uttxLjANuswitY48SyUV-31" value="" style="endArrow=classic;html=1;fontSize=13;entryX=-0.017;entryY=0.601;entryDx=0;entryDy=0;entryPerimeter=0;" edge="1" parent="1" target="uttxLjANuswitY48SyUV-23">
          <mxGeometry width="50" height="50" relative="1" as="geometry">
            <mxPoint x="240" y="370" as="sourcePoint" />
            <mxPoint x="300" y="310" as="targetPoint" />
          </mxGeometry>
        </mxCell>
        <mxCell id="uttxLjANuswitY48SyUV-32" value="" style="endArrow=classic;html=1;fontSize=13;entryX=0;entryY=0.25;entryDx=0;entryDy=0;exitX=1;exitY=0.5;exitDx=0;exitDy=0;" edge="1" parent="1" source="uttxLjANuswitY48SyUV-11" target="uttxLjANuswitY48SyUV-22">
          <mxGeometry width="50" height="50" relative="1" as="geometry">
            <mxPoint x="240" y="230" as="sourcePoint" />
            <mxPoint x="290" y="180" as="targetPoint" />
          </mxGeometry>
        </mxCell>
        <mxCell id="uttxLjANuswitY48SyUV-33" value="" style="endArrow=classic;html=1;fontSize=13;entryX=1;entryY=0.612;entryDx=0;entryDy=0;entryPerimeter=0;exitX=0;exitY=0.5;exitDx=0;exitDy=0;" edge="1" parent="1" source="uttxLjANuswitY48SyUV-27" target="uttxLjANuswitY48SyUV-23">
          <mxGeometry width="50" height="50" relative="1" as="geometry">
            <mxPoint x="510" y="350" as="sourcePoint" />
            <mxPoint x="440" y="300" as="targetPoint" />
          </mxGeometry>
        </mxCell>
        <mxCell id="uttxLjANuswitY48SyUV-35" value="" style="rounded=0;whiteSpace=wrap;html=1;fontSize=13;fillColor=none;" vertex="1" parent="1">
          <mxGeometry x="40" y="40" width="680" height="440" as="geometry" />
        </mxCell>
      </root>
    </mxGraphModel>
  </diagram>
</mxfile>
